<svg xmlns="http://www.w3.org/2000/svg" viewBox="0 0 120 90" role="img">
  <title>Tablette d'argile et écriture cunéiforme</title>
  <rect width="120" height="90" fill="#eef2f7"/>
  <rect x="24" y="16" width="72" height="58" rx="5" fill="#c8a97e" stroke="#8a6f4a" stroke-width="1.6"/>
  <g stroke="#6b5330" stroke-width="1.6" stroke-linecap="round">
    <path d="M34 30 h14 M34 30 l4 4 M34 30 l4 -4"/>
    <path d="M56 30 h12 M56 30 l4 4 M56 30 l4 -4"/>
    <path d="M76 30 h10 M76 30 l4 4"/>
    <path d="M34 44 h10 M34 44 l4 4 M50 44 h16 M50 44 l4 -4"/>
    <path d="M72 44 h14 M72 44 l4 4 M72 44 l4 -4"/>
    <path d="M34 58 h16 M34 58 l4 -4 M56 58 h12 M56 58 l4 4 M74 58 h12"/>
  </g>
</svg>
